<?xml version="1.0" encoding="utf-8"?>
<!-- Generator: Adobe Illustrator 21.0.0, SVG Export Plug-In . SVG Version: 6.00 Build 0)  -->
<svg version="1.1" id="Capa_1" xmlns="http://www.w3.org/2000/svg" xmlns:xlink="http://www.w3.org/1999/xlink" x="0px" y="0px"
	 viewBox="0 0 512 512" style="enable-background:new 0 0 512 512;" xml:space="preserve">
<style type="text/css">
	.st0{fill:#025FBD;}
</style>
<g>
	<g>
		<g>
			<path class="st0" d="M503.5,324.3c-23.3-0.5-46.3,5.8-66,18.1c-3.7,2.1-7.4,4.1-11.3,6l81.8-98.3c4.3-5.1,5.3-12.2,2.5-18.2
				s-8.9-9.9-15.5-9.9h-74l-90-65.5l-4.4-8.7c-8.6-17.4-26.4-28.4-45.8-28.3H193l-8.5-17.1h45.9c4.7,0,8.5-3.8,8.5-8.5
				s-3.8-8.5-8.5-8.5h-93.9c-4.7,0-8.5,3.8-8.5,8.5s3.8,8.5,8.5,8.5h28.9l8.5,17.1h-37.4c-14.1,0-25.6,11.5-25.6,25.6
				s11.5,25.6,25.6,25.6h11.8l-25.6,51.2h-7.5c-5.4,0-10.4,2.5-13.7,6.8L81.1,256H66.4c-2.9,0-5.6,1.5-7.2,3.9l-41.5,64.7
				c-2.9-0.2-5.9-0.3-9.2-0.3c-4.7,0-8.5,3.8-8.5,8.5s3.8,8.5,8.5,8.5c20.4-0.5,40.5,5.1,57.7,16c19.8,12.4,42.7,18.7,66,18.1
				c18.3,0.5,36.4-3.3,52.8-11.2l0.1-0.1c4.5-2.2,8.8-4.5,13-6.8c17.2-10.9,37.3-16.5,57.7-16c20.4-0.5,40.5,5.1,57.8,16
				c19.8,12.4,42.7,18.7,66,18.1c23.3,0.5,46.3-5.8,66-18.1c17.2-10.9,37.3-16.5,57.7-16c4.7,0,8.5-3.8,8.5-8.5
				S508.2,324.3,503.5,324.3z M321.5,170.7l23.5,17.1h-97.5c-4.7,0-8.5-3.8-8.5-8.5v-8.5L321.5,170.7L321.5,170.7z M136.5,153.6
				c-4.7,0-8.5-3.8-8.5-8.5s3.8-8.5,8.5-8.5h144.3c12.2,0,23.4,6.5,29.5,17.1L136.5,153.6L136.5,153.6z M167.4,170.7h54.5v8.5
				c0,14.1,11.5,25.6,25.6,25.6h121l23.5,17.1H141.8L167.4,170.7z M115.2,238.9h174.9v8.5c0,4.7-3.8,8.5-8.5,8.5H102.4L115.2,238.9z
				 M379.7,358.4c-20.4,0.5-40.5-5.1-57.8-16c-19.8-12.4-42.7-18.7-66-18.1c-23.3-0.5-46.2,5.8-66,18.1
				c-17.2,10.9-37.3,16.5-57.7,16c-20.4,0.5-40.5-5.1-57.7-16c-11.8-7.1-24.7-12.3-38.1-15.4L71,273h210.6
				c14.1,0,25.6-11.5,25.6-25.6v-8.5h25.6v25.6c0,4.7,3.8,8.5,8.5,8.5s8.5-3.8,8.5-8.5v-25.6h17.1v25.6c0,4.7,3.8,8.5,8.5,8.5
				s8.5-3.8,8.5-8.5v-25.6H401v25.6c0,4.7,3.8,8.5,8.5,8.5s8.5-3.8,8.5-8.5V239h76.7l-98.3,118.3C391,358,385.3,358.4,379.7,358.4z"
				/>
			<path class="st0" d="M503.5,375.5c-23.3-0.5-46.3,5.8-66,18.1c-17.2,10.9-37.3,16.5-57.7,16c-20.4,0.5-40.5-5.1-57.8-16
				c-19.8-12.4-42.7-18.7-66-18.1c-23.3-0.5-46.2,5.8-66,18.1c-17.2,10.9-37.3,16.5-57.7,16c-20.4,0.5-40.5-5.1-57.7-16
				c-19.7-12.4-42.7-18.7-66-18.1c-4.7,0-8.5,3.8-8.5,8.5s3.8,8.5,8.5,8.5c20.4-0.5,40.5,5.1,57.7,16c19.8,12.4,42.7,18.7,66,18.1
				c23.3,0.5,46.2-5.8,66-18.1c17.2-10.9,37.3-16.5,57.7-16c20.4-0.5,40.5,5.1,57.8,16c19.8,12.4,42.7,18.7,66,18.1
				c23.3,0.5,46.3-5.8,66-18.1c17.2-10.9,37.3-16.5,57.7-16c4.7,0,8.5-3.8,8.5-8.5S508.2,375.5,503.5,375.5z"/>
		</g>
	</g>
</g>
</svg>
