<?xml version="1.0" encoding="utf-8"?>
<!-- Generator: Adobe Illustrator 21.0.0, SVG Export Plug-In . SVG Version: 6.00 Build 0)  -->
<svg version="1.1" id="Layer_1" xmlns="http://www.w3.org/2000/svg" xmlns:xlink="http://www.w3.org/1999/xlink" x="0px" y="0px"
	 viewBox="0 0 370.8 66.2" style="enable-background:new 0 0 370.8 66.2;" xml:space="preserve">
<style type="text/css">
	.st0{fill:#C4CCD5;}
	.st1{fill:#FFFFFF;}
	.st2{fill:#ED1E25;}
</style>
<g>
	<path class="st0" d="M124.3,1.8c5.6,0,10.4,2,14.4,6.1c4,4,6,9,6,14.8c0,5.8-2,10.6-6,14.6c-4,4-8.8,6-14.4,6
		c-5.9,0-10.9-2-14.8-6.1c-3.9-4.1-5.9-9-5.9-14.6c0-3.8,0.9-7.2,2.7-10.4c1.8-3.2,4.3-5.7,7.5-7.5C117.2,2.7,120.6,1.8,124.3,1.8z
		 M124.2,9.1c-3.7,0-6.7,1.3-9.2,3.8c-2.5,2.5-3.7,5.8-3.7,9.7c0,4.4,1.6,7.8,4.7,10.4c2.4,2,5.2,3,8.4,3c3.6,0,6.6-1.3,9.1-3.9
		s3.8-5.8,3.8-9.5c0-3.8-1.3-6.9-3.8-9.5S127.8,9.1,124.2,9.1z"/>
	<path class="st0" d="M151,13h7.4v14.1c0,2.7,0.2,4.6,0.6,5.7c0.4,1.1,1,1.9,1.8,2.5c0.8,0.6,1.9,0.9,3.1,0.9c1.2,0,2.3-0.3,3.1-0.9
		c0.9-0.6,1.5-1.4,1.9-2.6c0.3-0.8,0.5-2.6,0.5-5.4V13h7.3v12.4c0,5.1-0.4,8.6-1.2,10.5c-1,2.3-2.4,4-4.3,5.3
		c-1.9,1.2-4.3,1.8-7.3,1.8c-3.2,0-5.8-0.7-7.8-2.1c-2-1.4-3.4-3.4-4.2-6c-0.6-1.8-0.9-5-0.9-9.7V13z"/>
	<path class="st0" d="M182.3,13h6.3v3.7c0.7-1.5,1.6-2.6,2.7-3.3s2.4-1.1,3.7-1.1c0.9,0,1.9,0.3,3,0.8l-2.3,6.3
		c-0.9-0.4-1.6-0.6-2.1-0.6c-1.1,0-2.1,0.7-2.9,2.1s-1.2,4.1-1.2,8.2l0,1.4v11.8h-7.3V13z"/>
	<path class="st0" d="M199.4,2.8h7.7l9.9,28.1l10.1-28.1h7.7l-14.2,39.5h-7.3L199.4,2.8z"/>
	<path class="st0" d="M269.4,29.8h-23.5c0.3,2.1,1.2,3.7,2.7,5s3.4,1.8,5.7,1.8c2.7,0,5.1-1,7.1-2.9l6.2,2.9
		c-1.5,2.2-3.4,3.8-5.5,4.8c-2.1,1-4.7,1.6-7.7,1.6c-4.6,0-8.3-1.4-11.2-4.3c-2.9-2.9-4.3-6.5-4.3-10.9c0-4.5,1.4-8.2,4.3-11.1
		c2.9-2.9,6.5-4.4,10.8-4.4c4.6,0,8.3,1.5,11.2,4.4c2.9,2.9,4.3,6.8,4.3,11.7L269.4,29.8z M262,24c-0.5-1.6-1.4-3-2.9-4
		c-1.4-1-3.1-1.5-5-1.5c-2,0-3.8,0.6-5.4,1.7c-1,0.7-1.9,2-2.7,3.8H262z"/>
	<path class="st0" d="M275.3,13h7.3v3c1.7-1.4,3.2-2.4,4.5-2.9s2.7-0.8,4.1-0.8c2.9,0,5.4,1,7.4,3c1.7,1.7,2.5,4.3,2.5,7.6v19.3H294
		V29.5c0-3.5-0.2-5.8-0.5-6.9c-0.3-1.1-0.9-2-1.6-2.6c-0.8-0.6-1.7-0.9-2.9-0.9c-1.5,0-2.8,0.5-3.8,1.5c-1.1,1-1.8,2.4-2.2,4.1
		c-0.2,0.9-0.3,2.9-0.3,5.9v11.7h-7.3V13z"/>
	<path class="st0" d="M308.3,13h7.4v14.1c0,2.7,0.2,4.6,0.6,5.7c0.4,1.1,1,1.9,1.8,2.5c0.8,0.6,1.9,0.9,3.1,0.9
		c1.2,0,2.3-0.3,3.1-0.9c0.9-0.6,1.5-1.4,1.9-2.6c0.3-0.8,0.5-2.6,0.5-5.4V13h7.3v12.4c0,5.1-0.4,8.6-1.2,10.5c-1,2.3-2.4,4-4.3,5.3
		c-1.9,1.2-4.3,1.8-7.3,1.8c-3.2,0-5.8-0.7-7.8-2.1c-2-1.4-3.4-3.4-4.2-6c-0.6-1.8-0.9-5-0.9-9.7V13z"/>
	<path class="st0" d="M370.6,29.8H347c0.3,2.1,1.2,3.7,2.7,5s3.4,1.8,5.7,1.8c2.7,0,5.1-1,7.1-2.9l6.2,2.9c-1.5,2.2-3.4,3.8-5.5,4.8
		c-2.1,1-4.7,1.6-7.7,1.6c-4.6,0-8.3-1.4-11.2-4.3c-2.9-2.9-4.3-6.5-4.3-10.9c0-4.5,1.4-8.2,4.3-11.1c2.9-2.9,6.5-4.4,10.8-4.4
		c4.6,0,8.3,1.5,11.2,4.4c2.9,2.9,4.3,6.8,4.3,11.7L370.6,29.8z M363.2,24c-0.5-1.6-1.4-3-2.9-4c-1.4-1-3.1-1.5-5-1.5
		c-2,0-3.8,0.6-5.4,1.7c-1,0.7-1.9,2-2.7,3.8H363.2z"/>
</g>
<g>
	<path class="st1" d="M339.6,48.2h3.7v1.3c0.8-0.6,1.6-1,2.3-1.3s1.4-0.4,2.1-0.4c1.5,0,2.7,0.4,3.7,1.3c0.9,0.7,1.3,1.9,1.3,3.3
		v8.4h-3.6v-5.6c0-1.5-0.1-2.5-0.2-3c-0.2-0.5-0.4-0.9-0.8-1.1c-0.4-0.3-0.9-0.4-1.4-0.4c-0.7,0-1.4,0.2-1.9,0.6
		c-0.5,0.4-0.9,1-1.1,1.8c-0.1,0.4-0.2,1.3-0.2,2.6v5.1h-3.7V48.2z"/>
	<path class="st1" d="M367,48.2h3.7v10.9c0,2.2-0.5,3.7-1.5,4.7c-1.3,1.4-3.4,2.1-6,2.1c-1.4,0-2.6-0.2-3.6-0.5
		c-1-0.3-1.8-0.8-2.5-1.4c-0.7-0.6-1.2-1.3-1.5-2.2h4.1c0.4,0.4,0.8,0.6,1.4,0.8c0.6,0.2,1.2,0.3,2,0.3c1,0,1.8-0.1,2.4-0.4
		c0.6-0.3,1-0.6,1.3-1c0.2-0.4,0.4-1.1,0.4-2.2c-0.6,0.6-1.3,1-2,1.2c-0.7,0.2-1.5,0.4-2.4,0.4c-2,0-3.6-0.6-5-1.8
		c-1.4-1.2-2-2.8-2-4.7c0-2,0.7-3.6,2.2-4.9c1.3-1.1,2.9-1.7,4.7-1.7c0.8,0,1.6,0.1,2.4,0.4c0.7,0.3,1.5,0.7,2.3,1.3V48.2z
		 M363.1,50.9c-1.2,0-2.1,0.3-2.9,1c-0.8,0.7-1.1,1.5-1.1,2.5c0,1.1,0.4,1.9,1.2,2.6s1.7,1,2.9,1c1.1,0,2.1-0.3,2.8-1
		c0.7-0.7,1.1-1.5,1.1-2.6c0-1.1-0.4-1.9-1.1-2.6C365.3,51.2,364.3,50.9,363.1,50.9z"/>
</g>
<path class="st1" d="M46.2,16.3L0,43.3h11.1v17.6h22.5V41.6c0-6.9,5.6-12.5,12.5-12.5s12.5,5.6,12.5,12.5v19.3h22.6V43.3h10.9
	L46.2,16.3z"/>
<path class="st2" d="M83.9,5.5C80.5,2.1,75.7,0,70.5,0c-5.2,0-10,2.1-13.4,5.5c-3.4,3.4-5.5,8.2-5.5,13.4c0,5.2,2.2,9.8,5.5,13.3
	c0,0.1,13.5,21.6,13.5,21.6s9.4-16.6,13.4-21.6c3-3.8,5.5-8.2,5.5-13.4C89.4,13.7,87.3,9,83.9,5.5z"/>
<circle class="st1" cx="70.5" cy="18.9" r="10.7"/>
<circle class="st1" cx="335.5" cy="59.4" r="2"/>
</svg>
