<?xml version="1.0" encoding="utf-8"?>
<!-- Generator: Adobe Illustrator 21.0.0, SVG Export Plug-In . SVG Version: 6.00 Build 0)  -->
<svg version="1.1" id="Layer_1" xmlns="http://www.w3.org/2000/svg" xmlns:xlink="http://www.w3.org/1999/xlink" x="0px" y="0px"
	 viewBox="0 0 259 77" style="enable-background:new 0 0 259 77;" xml:space="preserve">
<style type="text/css">
	.st0{fill:#4378BC;}
	.st1{fill:#FFFFFF;}
	.st2{fill:#4688C8;}
</style>
<g>
	<path class="st0" d="M150.4,220.6c-2.8-1.5-5-3.6-6.6-6.2c-1.6-2.6-2.4-5.6-2.4-8.9s0.8-6.2,2.4-8.9c1.6-2.6,3.8-4.7,6.6-6.2
		c2.8-1.5,5.9-2.2,9.4-2.2c3.5,0,6.6,0.7,9.4,2.2c2.8,1.5,5,3.6,6.6,6.2c1.6,2.6,2.4,5.6,2.4,8.9s-0.8,6.2-2.4,8.9
		c-1.6,2.6-3.8,4.7-6.6,6.2c-2.8,1.5-5.9,2.2-9.4,2.2C156.3,222.8,153.2,222.1,150.4,220.6z M165.2,214.9c1.6-0.9,2.8-2.2,3.8-3.8
		c0.9-1.6,1.4-3.5,1.4-5.5c0-2.1-0.5-3.9-1.4-5.5c-0.9-1.6-2.2-2.9-3.8-3.8c-1.6-0.9-3.4-1.4-5.4-1.4c-2,0-3.8,0.5-5.4,1.4
		c-1.6,0.9-2.8,2.2-3.8,3.8c-0.9,1.6-1.4,3.5-1.4,5.5c0,2.1,0.5,3.9,1.4,5.5c0.9,1.6,2.2,2.9,3.8,3.8c1.6,0.9,3.4,1.4,5.4,1.4
		C161.8,216.2,163.6,215.8,165.2,214.9z"/>
	<path class="st0" d="M209.4,196.5v25.7h-7.1v-3.1c-1,1.1-2.2,2-3.5,2.6c-1.4,0.6-2.9,0.9-4.4,0.9c-3.4,0-6.1-1-8-2.9
		c-2-1.9-3-4.8-3-8.7v-14.5h7.5V210c0,4.1,1.7,6.2,5.2,6.2c1.8,0,3.2-0.6,4.3-1.7c1.1-1.2,1.6-2.9,1.6-5.2v-12.7H209.4z"/>
	<path class="st0" d="M227.1,197.1c1.5-0.6,3.3-1,5.2-1v6.9c-0.8-0.1-1.4-0.1-1.7-0.1c-2.1,0-3.8,0.6-5,1.8c-1.2,1.2-1.8,3-1.8,5.4
		v12.2h-7.5v-25.7h7.1v3.4C224.3,198.7,225.6,197.7,227.1,197.1z"/>
	<path class="st0" d="M268.5,188.8L254,222.3h-7.7l-14.4-33.5h8.4l10.2,23.9l10.3-23.9H268.5z"/>
	<path class="st0" d="M293.9,211.5h-19.5c0.4,1.6,1.2,2.9,2.5,3.8c1.3,0.9,2.9,1.4,4.9,1.4c1.3,0,2.5-0.2,3.6-0.6c1-0.4,2-1,2.9-1.9
		l4,4.3c-2.4,2.8-6,4.2-10.6,4.2c-2.9,0-5.5-0.6-7.7-1.7c-2.2-1.1-4-2.7-5.2-4.7c-1.2-2-1.8-4.3-1.8-6.8c0-2.5,0.6-4.8,1.8-6.8
		c1.2-2,2.8-3.6,4.9-4.7c2.1-1.1,4.4-1.7,7-1.7c2.5,0,4.8,0.5,6.8,1.6c2,1.1,3.6,2.6,4.8,4.7c1.2,2,1.7,4.4,1.7,7.1
		C294.1,209.6,294,210.3,293.9,211.5z M276.5,203.2c-1.1,1-1.8,2.3-2.1,3.9H287c-0.3-1.6-1-2.9-2.1-3.9c-1.1-1-2.6-1.5-4.2-1.5
		C279,201.8,277.6,202.3,276.5,203.2z"/>
	<path class="st0" d="M322.4,199c2,1.9,2.9,4.8,2.9,8.5v14.7h-7.5v-13.6c0-2-0.4-3.6-1.3-4.6s-2.2-1.5-3.9-1.5
		c-1.9,0-3.4,0.6-4.5,1.7c-1.1,1.2-1.7,2.9-1.7,5.2v12.7H299v-25.7h7.1v3c1-1.1,2.2-1.9,3.7-2.5c1.5-0.6,3.1-0.9,4.8-0.9
		C317.9,196.1,320.5,197.1,322.4,199z"/>
	<path class="st0" d="M358,196.5v25.7H351v-3.1c-1,1.1-2.2,2-3.5,2.6c-1.4,0.6-2.9,0.9-4.4,0.9c-3.4,0-6.1-1-8-2.9
		c-2-1.9-3-4.8-3-8.7v-14.5h7.5V210c0,4.1,1.7,6.2,5.2,6.2c1.8,0,3.2-0.6,4.3-1.7c1.1-1.2,1.6-2.9,1.6-5.2v-12.7H358z"/>
	<path class="st0" d="M390,211.5h-19.5c0.4,1.6,1.2,2.9,2.5,3.8c1.3,0.9,2.9,1.4,4.9,1.4c1.3,0,2.5-0.2,3.6-0.6c1-0.4,2-1,2.9-1.9
		l4,4.3c-2.4,2.8-6,4.2-10.6,4.2c-2.9,0-5.5-0.6-7.7-1.7c-2.2-1.1-4-2.7-5.2-4.7c-1.2-2-1.8-4.3-1.8-6.8c0-2.5,0.6-4.8,1.8-6.8
		c1.2-2,2.8-3.6,4.9-4.7c2.1-1.1,4.4-1.7,7-1.7c2.5,0,4.8,0.5,6.8,1.6c2,1.1,3.6,2.6,4.8,4.7c1.2,2,1.7,4.4,1.7,7.1
		C390.2,209.6,390.1,210.3,390,211.5z M372.6,203.2c-1.1,1-1.8,2.3-2.1,3.9h12.7c-0.3-1.6-1-2.9-2.1-3.9c-1.1-1-2.6-1.5-4.2-1.5
		C375.2,201.8,373.7,202.3,372.6,203.2z"/>
</g>
<polygon class="st1" points="121.3,223.2 111.8,223.2 111.8,238.5 50.8,238.5 50.8,223.2 41.2,223.2 81.4,199.7 "/>
<g>
	<path class="st2" d="M114.2,190.3c-3-3-7.1-4.8-11.6-4.8c-4.6,0-8.7,1.8-11.6,4.8c-3,3-4.8,7.1-4.8,11.6c0,4.5,1.9,8.5,4.8,11.6
		c0,0,11.7,18.8,11.7,18.8s8.2-14.4,11.6-18.8c2.6-3.3,4.8-7.1,4.8-11.6C119,197.4,117.2,193.3,114.2,190.3z"/>
	<circle class="st1" cx="102.5" cy="201.9" r="9.3"/>
</g>
<circle class="st1" cx="357" cy="235.5" r="2.5"/>
<text transform="matrix(1 0 0 1 363.0625 238.5085)" class="st1" style="font-family:'Montserrat-Bold'; font-size:20px;">ng</text>
<rect x="72" y="17" class="st0" width="79" height="47"/>
</svg>
