<?xml version="1.0" encoding="utf-8"?>
<!-- Generator: Adobe Illustrator 21.0.0, SVG Export Plug-In . SVG Version: 6.00 Build 0)  -->
<svg version="1.1" id="Capa_1" xmlns="http://www.w3.org/2000/svg" xmlns:xlink="http://www.w3.org/1999/xlink" x="0px" y="0px"
	 viewBox="0 0 512 512" style="enable-background:new 0 0 512 512;" xml:space="preserve">
<style type="text/css">
	.st0{fill:#A7A8AB;}
</style>
<g>
	<g>
		<g>
			<path class="st0" d="M512,196.2c0-0.2-0.1-0.3-0.1-0.5c-0.1-0.6-0.2-1.2-0.4-1.7c-0.1-0.5-0.3-1-0.5-1.5
				c-0.2-0.5-0.5-0.9-0.9-1.3c-0.3-0.5-0.7-0.9-1.2-1.3c-0.1-0.1-0.2-0.3-0.3-0.4l-82-63.7V59.7c0-14.1-11.5-25.6-25.6-25.6h-92.5
				l-37-28.7c-9.1-7.1-22-7.1-31.1,0l-37,28.7h-92.5c-14.1,0-25.6,11.5-25.6,25.6v66.1l-82,63.7c-0.1,0.1-0.2,0.3-0.3,0.4
				c-0.4,0.4-0.8,0.9-1.2,1.3c-0.3,0.4-0.6,0.8-0.9,1.3c-0.2,0.5-0.4,1-0.5,1.5c-0.2,0.6-0.3,1.1-0.3,1.7c0,0.2-0.1,0.3-0.1,0.5
				v290.2c0,2.7,0.5,5.5,1.4,8.1c-2,3-1.9,6.8,0.2,9.7s5.8,4.1,9.2,3.1c4.3,3.1,9.5,4.7,14.8,4.7h460.8c5.3,0,10.5-1.7,14.8-4.8
				c0.7,0.2,1.5,0.3,2.2,0.4c3.1,0,6-1.7,7.5-4.4s1.3-6.1-0.4-8.7c0.9-2.6,1.4-5.3,1.4-8.1L512,196.2L512,196.2z M250.9,18.8
				c3-2.4,7.2-2.4,10.2,0l19.7,15.3h-49.5L250.9,18.8z M27.7,494.9l223.2-173.3c3-2.4,7.2-2.4,10.2,0l223.2,173.3H27.7z
				 M494.9,481.6L271.5,308.1c-9.1-7.1-22-7.1-31.1,0L17.1,481.6V209.2l139.8,108.6c3.7,2.9,9.1,2.2,12-1.5s2.2-9.1-1.5-12L25.3,194
				l60-46.6v65.9c0,4.7,3.8,8.5,8.5,8.5c4.7,0,8.5-3.8,8.5-8.5V59.7c0-4.7,3.8-8.5,8.5-8.5h290.1c4.7,0,8.5,3.8,8.5,8.5v153.6
				c0,4.7,3.8,8.5,8.5,8.5s8.5-3.8,8.5-8.5v-65.9l60,46.6L344.4,304.5c-3.7,2.9-4.4,8.3-1.5,12c2.9,3.7,8.3,4.4,12,1.5l140.1-108.8
				V481.6z"/>
			<path class="st0" d="M170.7,110.9h170.7c4.7,0,8.5-3.8,8.5-8.5s-3.8-8.5-8.5-8.5H170.7c-4.7,0-8.5,3.8-8.5,8.5
				S165.9,110.9,170.7,110.9z"/>
			<path class="st0" d="M349.9,153.6c0-4.7-3.8-8.5-8.5-8.5H170.7c-4.7,0-8.5,3.8-8.5,8.5c0,4.7,3.8,8.5,8.5,8.5h170.7
				C346,162.1,349.9,158.3,349.9,153.6z"/>
			<path class="st0" d="M349.9,204.8c0-4.7-3.8-8.5-8.5-8.5h-76.8c-4.7,0-8.5,3.8-8.5,8.5s3.8,8.5,8.5,8.5h76.8
				C346,213.3,349.9,209.5,349.9,204.8z"/>
		</g>
	</g>
</g>
<path class="st0" d="M-140.5,279.5h-62c-0.7,0-1.3-0.6-1.3-1.3v-62c0-0.7,0.6-1.3,1.3-1.3h62c0.7,0,1.3,0.6,1.3,1.3v62
	C-139.2,278.9-139.8,279.5-140.5,279.5z"/>
</svg>
