<?xml version="1.0" encoding="utf-8"?>
<!-- Generator: Adobe Illustrator 21.0.0, SVG Export Plug-In . SVG Version: 6.00 Build 0)  -->
<svg version="1.1" id="Layer_1" xmlns="http://www.w3.org/2000/svg" xmlns:xlink="http://www.w3.org/1999/xlink" x="0px" y="0px"
	 viewBox="0 0 512 512" style="enable-background:new 0 0 512 512;" xml:space="preserve">
<style type="text/css">
	.st0{fill:#025FBD;}
</style>
<g>
	<path class="st0" d="M14.1,176.8c3.9,1.9,8.3,2.8,13,2.8c2.7,0,5.5-0.3,8.4-0.9c17.2-3.8,26.9-17,23.6-32.1l0,0l-19-86.7l79.5-17.3
		l14,64.3c-4.5-0.8-9.5-0.7-14.9,0.5c-17.6,3.8-27.2,16.5-23.9,31.5c2.8,12.7,13.2,20.3,26.6,20.3c2.6,0,5.4-0.3,8.3-0.9
		c17.2-3.8,26.9-17,23.6-32.1l0,0L128,10.5c-1.6-7.2-8.7-11.7-15.9-10.2L29.4,18.4c-3.5,0.8-6.4,2.8-8.4,5.8c-1.9,3-2.6,6.6-1.8,10
		l20.3,93.1c-4.5-0.8-9.5-0.7-14.9,0.4c-7.9,1.7-14.3,5.2-18.6,10.1c-5.1,5.8-7,13.4-5.3,21.4S7.2,173.4,14.1,176.8z M126.4,143.5
		c-3.4,0.7-14.7,2.4-17-7.9c-2-9.1,6.9-12.5,12.4-13.7c1.8-0.4,3.8-0.7,5.8-0.7c4.9,0,9.5,1.8,10.9,8l0,0
		C140.8,139.5,129.8,142.7,126.4,143.5z M113.7,15.3l2.7,12.5L36.9,45.2l-2.7-12.5L113.7,15.3z M17.2,147.8
		c2.2-2.5,5.9-4.4,10.6-5.4c1.8-0.4,3.8-0.7,5.8-0.7c4.9,0,9.5,1.8,10.9,8l0,0c2.2,10.3-8.7,13.5-12.1,14.3c-4.5,1-8.6,0.7-11.6-0.7
		c-2.8-1.4-4.6-3.7-5.3-7.2C14.6,152.7,15.2,150.1,17.2,147.8z"/>
	<path class="st0" d="M510.9,375.2c-1.4-3.3-4.1-5.8-7.4-7l-79-30.7c-6.8-2.7-14.6,0.7-17.2,7.6L372.7,434c-3.3-3.3-7.6-6-12.7-8
		c-7.5-2.9-14.8-3.6-21.1-1.9c-7.5,2-13.3,7.3-16.2,14.9c-2.9,7.6-2.4,15.4,1.6,22c3.5,5.8,9.3,10.5,16.8,13.4
		c4.5,1.8,8.9,2.6,13.1,2.6c11,0,20.2-5.9,24.3-16.3l32.1-82.7l75.9,29.5l-23.8,61.4c-3.3-3.3-7.6-6-12.7-7.9
		c-16.8-6.5-31.8-1.3-37.3,13.1c-2.9,7.6-2.4,15.4,1.6,22c3.5,5.8,9.3,10.5,16.8,13.4c4.5,1.8,8.9,2.6,13.1,2.6
		c11,0,20.2-5.9,24.3-16.4l42.8-110.2C512.4,382.1,512.3,378.5,510.9,375.2z M346.5,460.5c-4.3-1.7-7.6-4.2-9.3-7
		c-1.6-2.7-1.8-5.6-0.5-8.9c1.3-3.2,3.2-5.1,6.1-5.9c1-0.3,2.2-0.4,3.4-0.4c2.5,0,5.4,0.6,8.4,1.8c4.4,1.7,7.7,4.1,9.4,6.8
		c1.6,2.5,1.7,5.2,0.4,8.5C360.6,465.1,349.7,461.8,346.5,460.5z M416,364.1l4.6-12l75.9,29.5l-4.6,12L416,364.1z M436.3,495.4
		c-4.3-1.7-7.6-4.2-9.3-7c-1.6-2.7-1.8-5.6-0.5-8.9c1.9-4.9,5.6-6.3,9.5-6.3c3,0,6.1,0.9,8.4,1.8c4.4,1.7,7.7,4.1,9.4,6.8
		c1.6,2.5,1.7,5.2,0.4,8.5C450.5,500.1,439.5,496.7,436.3,495.4z"/>
	<path class="st0" d="M220.3,477.7C174.2,511.2,104,500.3,57,452.2c-27.4-28-42.7-64.8-42-100.9c0.6-28.8,11.5-54.8,30.8-73.1
		c13.8-13,31.3-21.8,50.8-25.4c26.4-4.9,49.8-17.6,67.7-36.9c2.8-3,2.6-7.8-0.4-10.6s-7.8-2.6-10.6,0.4
		c-15.6,16.9-36.2,28-59.4,32.3c-22.3,4.1-42.5,14.2-58.3,29.2C13.3,288.4,0.7,318.1,0,351c-0.8,40.1,16.1,80.8,46.3,111.7
		c31.6,32.3,72.8,49.3,112,49.3c25.5,0,50.2-7.2,70.8-22.2c3.4-2.4,4.1-7.1,1.7-10.5C228.3,476,223.6,475.3,220.3,477.7z"/>
	<path class="st0" d="M349.8,326.9c15.7-15.7,23.2-35.9,21.7-58.4c-1.2-17.9-8-36.9-19.7-55.3l47.9-47.9c2.9-2.9,2.9-7.7,0-10.6
		c-2.9-2.9-7.7-2.9-10.6,0L256.3,287.4c-2.9-7.1-7.1-13.6-12.7-19.1s-12.1-9.8-19.1-12.7L380.7,99.4l31.8,31.8l-0.9,0.9
		c-2.9,2.9-2.9,7.7,0,10.6c1.5,1.5,3.4,2.2,5.3,2.2s3.8-0.7,5.3-2.2l1.9-1.9c1.2,0.4,2.4,0.6,3.7,0.6c0.1,0,0.3,0,0.4,0
		c3.4-0.1,6.7-1.6,8.9-4.2l8-9l8.5,8.5c1.5,1.5,3.4,2.2,5.3,2.2s3.8-0.7,5.3-2.2c2.9-2.9,2.9-7.7,0-10.6l-9.2-9.2l12.5-14.2l8.9,8.9
		c1.5,1.5,3.4,2.2,5.3,2.2s3.8-0.7,5.3-2.2c2.9-2.9,2.9-7.7,0-10.6l-9.6-9.6L490,77.2l6.5,6.5c1.5,1.5,3.4,2.2,5.3,2.2
		s3.8-0.7,5.3-2.2c2.9-2.9,2.9-7.7,0-10.6L500,66l9-10.2c4.3-4.9,4.1-12.4-0.5-17L473.3,3.6c-4.6-4.6-12.1-4.9-17-0.5l-10.2,9
		L438.9,5c-2.9-3-7.7-3-10.6,0c-2.9,2.9-2.9,7.7,0,10.6l6.5,6.5l-14.1,12.4l-9.7-9.7c-2.9-2.9-7.7-2.9-10.6,0s-2.9,7.7,0,10.6l9,9
		l-14.2,12.5l-9.2-9.2c-2.9-2.9-7.7-2.9-10.6,0s-2.9,7.7,0,10.6l8.5,8.5l-9,8c-2.6,2.3-4.1,5.5-4.2,8.9c0,1.3,0.1,2.7,0.5,4
		l-72.3,72.4c-42.2-27.1-84.6-27.3-111.9,0c-7,7-12.4,13.8-16.4,20.9c-2.1,3.6-0.8,8.2,2.8,10.2c1.2,0.7,2.5,1,3.7,1
		c2.6,0,5.1-1.4,6.5-3.8c3.4-5.9,7.9-11.7,14-17.7c29.8-29.8,70.7-11.6,90.4,0.3l-80.6,80.6c-1.4-0.1-2.9-0.2-4.3-0.2
		c-15.4,0-29.8,6-40.7,16.8c-10.9,10.9-16.8,25.3-16.8,40.7s6,29.8,16.8,40.7c10.9,10.9,25.3,16.8,40.7,16.8s29.8-6,40.7-16.8
		s16.8-25.3,16.8-40.7c0-1.4-0.1-2.9-0.2-4.3L341,224c11.8,19.8,29.5,61-1.7,92.2c-4.9,4.9-10.5,9.1-16.7,12.5
		c-34.1,18.7-56.7,49.4-63.5,86.4c-2.9,15.5-8.8,29.5-17.7,41.6c-2.5,3.3-1.7,8,1.6,10.5c1.3,1,2.9,1.5,4.4,1.5c2.3,0,4.6-1.1,6-3.1
		c10.3-14,17.1-30.1,20.4-47.8c6-32.6,25.9-59.6,56-76C337.1,337.9,343.9,332.8,349.8,326.9z M464.4,16L496,47.6l-68.3,77.6
		l-40.9-40.9L464.4,16z M233,339c-8,8-18.7,12.4-30.1,12.4s-22-4.4-30.1-12.4s-12.4-18.7-12.4-30.1s4.4-22,12.4-30.1
		c8-8,18.7-12.4,30.1-12.4s22,4.4,30.1,12.4c8,8,12.4,18.7,12.4,30.1C245.5,320.3,241.1,331,233,339z"/>
	<path class="st0" d="M63.8,334.8c-10.1,10.1-10.1,26.6,0,36.7l76.6,76.6c5.1,5.1,11.7,7.6,18.4,7.6c6.6,0,13.3-2.5,18.4-7.6
		c10.1-10.1,10.1-26.6,0-36.7l-76.6-76.6c-4.9-4.9-11.4-7.6-18.4-7.6S68.7,329.9,63.8,334.8z M166.5,422c4.3,4.3,4.3,11.2,0,15.5
		s-11.2,4.3-15.5,0l-76.6-76.6c-4.3-4.3-4.3-11.2,0-15.5c2.1-2.1,4.8-3.2,7.8-3.2c2.9,0,5.7,1.1,7.8,3.2L166.5,422z"/>
	<path class="st0" d="M377,158.3c1.9,0,3.8-0.7,5.3-2.2c2.9-2.9,2.9-7.7,0-10.6l-16-16c-2.9-2.9-7.7-2.9-10.6,0
		c-2.9,2.9-2.9,7.7,0,10.6l16,16C373.2,157.6,375.1,158.3,377,158.3z"/>
	<path class="st0" d="M354.8,180.5c1.9,0,3.8-0.7,5.3-2.2c2.9-2.9,2.9-7.7,0-10.6l-16-16c-2.9-2.9-7.7-2.9-10.6,0s-2.9,7.7,0,10.6
		l16,16C351,179.8,352.9,180.5,354.8,180.5z"/>
	<path class="st0" d="M332.7,202.7c1.9,0,3.8-0.7,5.3-2.2c2.9-2.9,2.9-7.7,0-10.6l-16-16c-2.9-2.9-7.7-2.9-10.6,0s-2.9,7.7,0,10.6
		l16,16C328.8,201.9,330.7,202.7,332.7,202.7z"/>
	<path class="st0" d="M310.5,224.8c1.9,0,3.8-0.7,5.3-2.2c2.9-2.9,2.9-7.7,0-10.6l-16-16c-2.9-2.9-7.7-2.9-10.6,0s-2.9,7.7,0,10.6
		l16,16C306.7,224.1,308.6,224.8,310.5,224.8z"/>
	<path class="st0" d="M267,218.2c-2.9,2.9-2.9,7.7,0,10.6l16,16c1.5,1.5,3.4,2.2,5.3,2.2s3.8-0.7,5.3-2.2c2.9-2.9,2.9-7.7,0-10.6
		l-16-16C274.7,215.3,270,215.3,267,218.2z"/>
	<path class="st0" d="M417.6,76.5c-2.9-2.9-7.7-2.9-10.6,0s-2.9,7.7,0,10.6s7.7,2.9,10.6,0S420.6,79.5,417.6,76.5z"/>
	<path class="st0" d="M435.6,94.4c-2.9-2.9-7.7-2.9-10.6,0s-2.9,7.7,0,10.6s7.7,2.9,10.6,0S438.5,97.3,435.6,94.4z"/>
	<path class="st0" d="M440.1,54c-2.9-2.9-7.7-2.9-10.6,0s-2.9,7.7,0,10.6c2.9,2.9,7.7,2.9,10.6,0C443.1,61.7,443.1,56.9,440.1,54z"
		/>
	<path class="st0" d="M458.1,71.9c-2.9-2.9-7.7-2.9-10.6,0s-2.9,7.7,0,10.6s7.7,2.9,10.6,0C461.1,79.5,461.1,74.8,458.1,71.9z"/>
	<path class="st0" d="M462.6,31.5c-2.9-2.9-7.7-2.9-10.6,0s-2.9,7.7,0,10.6s7.7,2.9,10.6,0S465.6,34.4,462.6,31.5z"/>
	<path class="st0" d="M480.6,49.3c-2.9-2.9-7.7-2.9-10.6,0s-2.9,7.7,0,10.6s7.7,2.9,10.6,0S483.6,52.3,480.6,49.3z"/>
</g>
</svg>
