<?xml version="1.0" encoding="utf-8"?>
<!-- Generator: Adobe Illustrator 21.0.0, SVG Export Plug-In . SVG Version: 6.00 Build 0)  -->
<svg version="1.1" id="Capa_1" xmlns="http://www.w3.org/2000/svg" xmlns:xlink="http://www.w3.org/1999/xlink" x="0px" y="0px"
	 viewBox="0 0 480 480" style="enable-background:new 0 0 480 480;" xml:space="preserve">
<style type="text/css">
	.st0{fill:#CCCCCC;}
	.st1{fill:#29ABE2;}
	.st2{fill:#999999;}
	.st3{fill:#DA4836;}
	.st4{fill:#F2F2F2;}
	.st5{fill:#5B53A2;}
</style>
<g>
	<path class="st0" d="M456,448V128c0-13.3-10.7-24-24-24H48c-13.3,0-24,10.7-24,24v320H456z"/>
	<path class="st1" d="M178.8,144H64v232h352V144H301.2H178.8z"/>
	<path class="st2" d="M472,424v24c0,13.3-10.7,24-24,24l0,0H32c-13.3,0-24-10.7-24-24l0,0v-24h160l16,16h112l16-16H472z"/>
	<path class="st3" d="M296,64c0,48-56,88-56,88s-56-40-56-88c0-30.9,25.1-56,56-56S296,33.1,296,64z"/>
	<circle class="st4" cx="240" cy="64" r="24"/>
	<path class="st5" d="M472,416h-8V128c0-17.7-14.3-32-32-32H296.9c4.5-10.1,6.9-21,7.1-32c0-35.3-28.7-64-64-64s-64,28.7-64,64
		c0.2,11,2.6,21.9,7.1,32H48c-17.7,0-32,14.3-32,32v288H8c-4.4,0-8,3.6-8,8v24c0,17.7,14.3,32,32,32h416c17.7,0,32-14.3,32-32v-24
		C480,419.6,476.4,416,472,416z M240,16c26.5,0,48,21.5,48,48c0,35.5-35.1,67.4-48,77.9c-12.9-10.5-48-42.4-48-77.9
		C192,37.5,213.5,16,240,16z M32,128c0-8.8,7.2-16,16-16h143.6c11,16.8,24.7,31.6,40.4,44v4c0,17.7,14.3,32,32,32h48
		c8.8,0,16,7.2,16,16s-7.2,16-16,16H176c-17.7,0-32,14.3-32,32s14.3,32,32,32h168c8.8,0,16,7.2,16,16s-7.2,16-16,16H144
		c-17.7,0-32,14.3-32,32v16H72V152h128v-16H64c-4.4,0-8,3.6-8,8v232c0,4.4,3.6,8,8,8h352c4.4,0,8-3.6,8-8V144c0-4.4-3.6-8-8-8H280
		v16h128v216H128v-16c0-8.8,7.2-16,16-16h200c17.7,0,32-14.3,32-32s-14.3-32-32-32H176c-8.8,0-16-7.2-16-16s7.2-16,16-16h136
		c17.7,0,32-14.3,32-32s-14.3-32-32-32h-48c-8.8,0-16-7.2-16-16v-4c15.8-12.4,29.5-27.2,40.4-44H432c8.8,0,16,7.2,16,16v288H312
		c-2.1,0-4.2,0.8-5.7,2.3L292.7,432H187.3l-13.7-13.7c-1.5-1.5-3.5-2.3-5.7-2.3H32V128z M464,448c0,8.8-7.2,16-16,16H32
		c-8.8,0-16-7.2-16-16v-16h148.7l13.7,13.7c1.5,1.5,3.5,2.3,5.7,2.3h112c2.1,0,4.2-0.8,5.7-2.3l13.7-13.7H464V448z"/>
	<path d="M232,400h16v16h-16V400z"/>
	<path class="st5" d="M272,64c0-17.7-14.3-32-32-32s-32,14.3-32,32s14.3,32,32,32S272,81.7,272,64z M224,64c0-8.8,7.2-16,16-16
		s16,7.2,16,16s-7.2,16-16,16S224,72.8,224,64z"/>
</g>
<path class="st5" d="M-143.3,233.8h-62c-0.7,0-1.3-0.6-1.3-1.3v-62c0-0.7,0.6-1.3,1.3-1.3h62c0.7,0,1.3,0.6,1.3,1.3v62
	C-142,233.2-142.6,233.8-143.3,233.8z"/>
</svg>
