<?xml version="1.0" encoding="utf-8"?>
<!-- Generator: Adobe Illustrator 21.0.0, SVG Export Plug-In . SVG Version: 6.00 Build 0)  -->
<svg version="1.1" id="Layer_1" xmlns="http://www.w3.org/2000/svg" xmlns:xlink="http://www.w3.org/1999/xlink" x="0px" y="0px"
	 viewBox="0 0 512 512" style="enable-background:new 0 0 512 512;" xml:space="preserve">
<style type="text/css">
	.st0{fill:#FFFFFF;}
</style>
<g>
	<g>
		<g>
			<path class="st0" d="M99.6,8.1C88,0.5,73.9-1.8,60.8,1.3l230.9,230.9l74.8-74.8L99.6,8.1z"/>
		</g>
	</g>
	<g>
		<g>
			<path class="st0" d="M32.1,20.1C25.7,28.7,22,39.2,22,50.3v411.4c0,11.1,3.7,21.6,10.1,30.2L268,256L32.1,20.1z"/>
		</g>
	</g>
	<g>
		<g>
			<path class="st0" d="M464.3,212.1L397,174.5L315.5,256l81.5,81.5l67.3-37.6c16.1-9,25.7-25.4,25.7-43.9S480.4,221.1,464.3,212.1z
				"/>
		</g>
	</g>
	<g>
		<g>
			<path class="st0" d="M291.7,279.7L60.8,510.6c3.8,0.9,7.6,1.4,11.5,1.4c9.5,0,19-2.7,27.3-8.1l267-149.4L291.7,279.7z"/>
		</g>
	</g>
</g>
</svg>
