<?xml version="1.0" encoding="utf-8"?>
<!-- Generator: Adobe Illustrator 21.0.0, SVG Export Plug-In . SVG Version: 6.00 Build 0)  -->
<svg version="1.1" id="Capa_1" xmlns="http://www.w3.org/2000/svg" xmlns:xlink="http://www.w3.org/1999/xlink" x="0px" y="0px"
	 viewBox="0 0 512 512" style="enable-background:new 0 0 512 512;" xml:space="preserve">
<style type="text/css">
	.st0{fill:#82C341;}
	.st1{fill:#EEF6FF;}
	.st2{fill:#C3DDF4;}
	.st3{fill:#293D7C;}
	.st4{fill:#1A2B63;}
	.st5{fill:#69CDFF;}
	.st6{fill:#52BBEF;}
	.st7{fill:#FF9518;}
	.st8{fill:#EF8318;}
	.st9{fill:#FFD00D;}
	.st10{fill:#91E0E8;}
	.st11{fill:#E26693;}
	.st12{fill:#FFAF10;}
	.st13{fill:#37C47A;}
	.st14{fill:#445EA0;}
	.st15{fill:#D9EAFC;}
</style>
<g>
	<circle class="st0" cx="267" cy="267" r="245"/>
	<path class="st1" d="M241.7,241.7c18.9-18.9,44.1-29.4,70.9-29.4c18.2,0,35.7,4.8,51,13.9V53.8H0v316.9c0,5.5,4.5,10,10,10h229.1
		C202.6,341.4,203.5,279.8,241.7,241.7z"/>
	<path class="st2" d="M22.7,370.7V53.8H0v316.9c0,5.5,4.5,10,10,10h22.7C27.2,380.7,22.7,376.2,22.7,370.7z"/>
	<path class="st3" d="M357.8,0H5.7C2.6,0,0,2.6,0,5.7v50.9h363.5V5.7C363.5,2.6,361,0,357.8,0z"/>
	<path class="st4" d="M28.4,0H5.7C2.6,0,0,2.6,0,5.7v50.9h22.7V5.7C22.7,2.6,25.3,0,28.4,0z"/>
	<path class="st5" d="M158.3,178.6c0,2.8-2.3,5-5,5H41.8c-2.8,0-5-2.3-5-5V98.7c0-2.8,2.3-5,5-5h111.4c2.8,0,5,2.3,5,5L158.3,178.6
		L158.3,178.6L158.3,178.6z"/>
	<path class="st6" d="M59.5,178.6V98.7c0-2.8,2.3-5,5-5H41.8c-2.8,0-5,2.3-5,5v79.9c0,2.8,2.3,5,5,5h22.7
		C61.7,183.6,59.5,181.4,59.5,178.6z"/>
	<path class="st7" d="M217.1,281.8H41.8c-2.8,0-5,2.3-5,5v47.8c0,2.8,2.3,5,5,5H216C210.8,320.7,211.1,300.5,217.1,281.8z"/>
	<path class="st8" d="M59.5,334.6v-47.8c0-2.8,2.3-5,5-5H41.8c-2.8,0-5,2.3-5,5v47.8c0,2.8,2.3,5,5,5h22.7
		C61.7,339.6,59.5,337.3,59.5,334.6z"/>
	<path class="st9" d="M217.1,281.8h-36.3v57.8H216C210.8,320.7,211.1,300.5,217.1,281.8z"/>
	<g>
		<path class="st10" d="M320.8,101.2H198.2c-4.1,0-7.5-3.4-7.5-7.5s3.4-7.5,7.5-7.5h122.6c4.1,0,7.5,3.4,7.5,7.5
			S324.9,101.2,320.8,101.2z"/>
		<path class="st10" d="M320.8,131.2H198.2c-4.1,0-7.5-3.4-7.5-7.5s3.4-7.5,7.5-7.5h122.6c4.1,0,7.5,3.4,7.5,7.5
			C328.3,127.8,324.9,131.2,320.8,131.2z"/>
		<path class="st10" d="M320.8,161.1H198.2c-4.1,0-7.5-3.4-7.5-7.5s3.4-7.5,7.5-7.5h122.6c4.1,0,7.5,3.4,7.5,7.5
			S324.9,161.1,320.8,161.1z"/>
		<path class="st10" d="M320.8,191.1H198.2c-4.1,0-7.5-3.4-7.5-7.5s3.4-7.5,7.5-7.5h122.6c4.1,0,7.5,3.4,7.5,7.5
			S324.9,191.1,320.8,191.1z"/>
		<path class="st10" d="M299.5,213.1H36.8c-4.1,0-7.5,3.4-7.5,7.5s3.4,7.5,7.5,7.5h221.6C270.8,220.2,284.7,215.1,299.5,213.1z"/>
		<path class="st10" d="M239.7,243.7H36.8c-4.1,0-7.5,3.4-7.5,7.5s3.4,7.5,7.5,7.5H228C231.4,253.4,235.3,248.4,239.7,243.7z"/>
	</g>
	<path class="st11" d="M34.9,34.6c-2,0-3.9-0.8-5.3-2.2c-1.4-1.4-2.2-3.3-2.2-5.3s0.8-3.9,2.2-5.3c1.4-1.4,3.3-2.2,5.3-2.2
		s3.9,0.8,5.3,2.2c1.4,1.4,2.2,3.3,2.2,5.3s-0.8,3.9-2.2,5.3C38.8,33.8,36.9,34.6,34.9,34.6z"/>
	<path class="st12" d="M59.5,34.6c-2,0-3.9-0.8-5.3-2.2C52.8,31,52,29.1,52,27.1s0.8-3.9,2.2-5.3c1.4-1.4,3.3-2.2,5.3-2.2
		s3.9,0.8,5.3,2.2c1.4,1.4,2.2,3.3,2.2,5.3s-0.8,3.9-2.2,5.3C63.4,33.8,61.5,34.6,59.5,34.6z"/>
	<path class="st13" d="M84.1,34.6c-2,0-3.9-0.8-5.3-2.2c-1.4-1.4-2.2-3.3-2.2-5.3s0.8-3.9,2.2-5.3c1.4-1.4,3.3-2.2,5.3-2.2
		s3.9,0.8,5.3,2.2c1.4,1.4,2.2,3.3,2.2,5.3s-0.8,3.9-2.2,5.3C88,33.8,86.1,34.6,84.1,34.6z"/>
	<path class="st14" d="M409.8,389.2l-20.6,20.6l40.4,40.4c7.3-6.4,14.1-13.3,20.6-20.6L409.8,389.2z"/>
	<path class="st3" d="M417.9,376.8l-17-17c-4.5,8.5-10.4,16.5-17.5,23.6s-15,12.9-23.6,17.5l17,17c1.9,1.9,5.1,1.9,7.1,0l34-34
		C419.9,381.9,419.9,378.8,417.9,376.8z"/>
	<path class="st4" d="M388.5,406.3L374,391.8c-4.5,3.5-9.2,6.6-14.1,9.2l17,17c1.9,1.9,5.1,1.9,7.1,0l11.7-11.7
		C393.6,408.2,390.4,408.2,388.5,406.3z"/>
	<path class="st14" d="M384.8,240.2c39.9,39.9,39.9,104.6,0,144.6c-39.9,39.9-104.6,39.9-144.6,0c-39.9-39.9-39.9-104.6,0-144.5
		C280.2,200.3,344.9,200.3,384.8,240.2z"/>
	<path class="st5" d="M363.2,363.2c-28,28-73.4,28-101.4,0s-28-73.4,0-101.3c28-28,73.4-28,101.4,0
		C391.2,289.8,391.2,335.2,363.2,363.2z"/>
	<path class="st6" d="M363.2,363.2c2.5-2.5,4.9-5.2,6.9-8.1c-28.1,20.8-67.9,18.5-93.3-6.9c-25.4-25.4-27.7-65.2-6.9-93.3
		c-2.8,2.1-5.5,4.4-8.1,6.9c-28,28-28,73.4,0,101.3C289.8,391.2,335.2,391.2,363.2,363.2z"/>
	<path class="st14" d="M357.8,0H115.9v56.6h247.6V5.7C363.5,2.6,361,0,357.8,0z"/>
	<g>
		<circle class="st15" cx="324.8" cy="264.5" r="12"/>
		<circle class="st15" cx="350" cy="277" r="8.5"/>
	</g>
</g>
</svg>
