<?xml version="1.0" encoding="utf-8"?>
<!-- Generator: Adobe Illustrator 21.0.0, SVG Export Plug-In . SVG Version: 6.00 Build 0)  -->
<svg version="1.1" id="Layer_1" xmlns="http://www.w3.org/2000/svg" xmlns:xlink="http://www.w3.org/1999/xlink" x="0px" y="0px"
	 viewBox="0 0 512 512" style="enable-background:new 0 0 512 512;" xml:space="preserve">
<style type="text/css">
	.st0{fill:#025FBD;}
</style>
<path class="st0" d="M494,199.3V247c-0.2,0-0.4,0-0.6,0L256,99.2L19.6,246c-0.5,0-1.1,0-1.6,0v-46.7H0v239.4h512V199.3H494z
	 M256,120l202.3,126.6c-96.2-0.6-268.9,1-405.3-0.2L256,120z M60,420.8H19V264.4h41V420.8z M80,420.7V264.4h160.5l-64.3,81.2
	l66.2,75.1H80z M241,292.4v100.3L197.5,347L241,292.4z M422,420.8H260V264.4h162V420.8z M494,419.8l-42-0.1h-11V264.4h53V419.8z"/>
</svg>
