<?xml version="1.0" encoding="utf-8"?>
<!-- Generator: Adobe Illustrator 21.0.0, SVG Export Plug-In . SVG Version: 6.00 Build 0)  -->
<svg version="1.1" id="Capa_1" xmlns="http://www.w3.org/2000/svg" xmlns:xlink="http://www.w3.org/1999/xlink" x="0px" y="0px"
	 viewBox="0 0 255.6 247" style="enable-background:new 0 0 255.6 247;" xml:space="preserve">
<style type="text/css">
	.st0{fill:#ECF0F1;}
	.st1{fill:#F8EE5D;}
	.st2{fill:#26B999;}
	.st3{fill:#FFFFFF;}
</style>
<g>
	<g>
		<path class="st0" d="M80.6,180.1l-34.3,18.7c-2,1.1-3.8,2.4-5.5,3.9c20,16.8,45.8,27,73.9,27c28,0,53.6-10,73.5-26.6
			c-1.8-1.6-3.8-2.9-6-4l-36.6-18.4c-4.7-2.4-7.7-7.2-7.7-12.5v-14.5c1-1.2,2.2-2.7,3.5-4.5c5-7.1,8.8-14.8,11.4-23
			c4.7-1.5,8.2-5.8,8.2-11V100c0-3.4-1.5-6.4-3.8-8.5V69.3c0,0,4.6-34.6-42.3-34.6S72.6,69.3,72.6,69.3v22.2
			c-2.3,2.1-3.8,5.1-3.8,8.5v15.4c0,4,2.1,7.6,5.3,9.7c3.8,16.7,13.9,28.7,13.9,28.7v14C87.9,172.9,85.1,177.6,80.6,180.1z"/>
		<g>
			<path class="st1" d="M116.8,0C53.4-1.1,1.1,49.5,0,112.9c-0.6,35.9,15.4,68.3,40.9,89.8c1.7-1.5,3.5-2.8,5.4-3.9l34.3-18.7
				c4.5-2.5,7.3-7.2,7.3-12.3v-14c0,0-10.1-12-13.9-28.7c-3.2-2.1-5.3-5.6-5.3-9.7V100c0-3.4,1.5-6.4,3.8-8.5V69.3
				c0,0-4.6-34.6,42.3-34.6s42.3,34.6,42.3,34.6v22.2c2.3,2.1,3.8,5.1,3.8,8.5v15.4c0,5.2-3.5,9.5-8.2,11c-2.6,8.2-6.4,15.9-11.4,23
				c-1.3,1.8-2.4,3.3-3.5,4.5v14.4c0,5.3,3,10.1,7.7,12.5l36.8,18.2c2.2,1.1,4.2,2.5,6,4c24.7-20.6,40.7-51.5,41.3-86.2
				C230.7,53.4,180.2,1.1,116.8,0z"/>
		</g>
	</g>
	<g>
		<circle class="st2" cx="203.6" cy="195" r="52"/>
		<path class="st3" d="M232.1,169.8c-2-1.4-4.7-0.9-6,1.1l-24.2,34.8l-17.1-14c-1.8-1.5-4.6-1.2-6.1,0.6c-1.5,1.9-1.3,4.6,0.6,6.1
			l20.7,17c0.8,0.6,1.8,1,2.7,1c0.2,0,0.4,0,0.6,0c1.2-0.2,2.3-0.8,3-1.8l26.9-38.7C234.6,173.8,234.1,171.1,232.1,169.8z"/>
	</g>
</g>
</svg>
