<?xml version="1.0" encoding="utf-8"?>
<!-- Generator: Adobe Illustrator 21.0.0, SVG Export Plug-In . SVG Version: 6.00 Build 0)  -->
<svg version="1.1" xmlns="http://www.w3.org/2000/svg" xmlns:xlink="http://www.w3.org/1999/xlink" x="0px" y="0px"
	 viewBox="0 0 32 32" style="enable-background:new 0 0 32 32;" xml:space="preserve">
<style type="text/css">
	.st0{fill:#4B5259;}
	.st1{fill:#EC2428;}
	.st2{fill:#FFFFFF;}
</style>
<g id="Layer_2">
	<circle class="st0" cx="16" cy="16" r="16"/>
	<path class="st1" d="M23.7,30C23.7,30,23.7,30,23.7,30c-2.3,1.3-4.9,2-7.7,2c-2.8,0-5.4-0.7-7.7-2c0,0,0,0,0,0l3.4-4h8.7L23.7,30z"
		/>
</g>
<g id="Layer_1">
	<path class="st2" d="M16.1,10.5L0,19.9h3.9V26h7.8v-6.7c0-2.4,1.9-4.3,4.3-4.3s4.3,1.9,4.3,4.3V26h7.9v-6.1H32L16.1,10.5z"/>
	<path class="st1" d="M29.6,2.4c-1.4-1.4-3.4-2.3-5.6-2.3s-4.2,0.9-5.6,2.3s-2.3,3.4-2.3,5.6s0.9,4.1,2.3,5.5c0,0,5.6,9,5.6,9
		s3.9-6.9,5.6-9c1.2-1.6,2.3-3.4,2.3-5.6C31.9,5.8,31,3.8,29.6,2.4z"/>
	<circle class="st2" cx="24.1" cy="7.7" r="3.8"/>
	<polygon class="st1" points="23.7,30 23.7,30 23.7,30 8.3,30 8.3,30 8.3,30 11.7,26 20.4,26 	"/>
</g>
</svg>
